<?xml version="1.0" encoding="UTF-8" standalone="no"?>
<svg
   xmlns:dc="http://purl.org/dc/elements/1.1/"
   xmlns:cc="http://creativecommons.org/ns#"
   xmlns:rdf="http://www.w3.org/1999/02/22-rdf-syntax-ns#"
   xmlns:svg="http://www.w3.org/2000/svg"
   xmlns="http://www.w3.org/2000/svg"
   xmlns:sodipodi="http://sodipodi.sourceforge.net/DTD/sodipodi-0.dtd"
   xmlns:inkscape="http://www.inkscape.org/namespaces/inkscape"
   width="1000"
   height="1000"
   viewBox="0 0 264.58333 264.58334"
   version="1.1"
   id="svg8"
   inkscape:export-filename="C:\Users\crist\OneDrive\Projects\Github\tic-tac-toe\favicon\favicon.png"
   inkscape:export-xdpi="96"
   inkscape:export-ydpi="96"
   inkscape:version="1.0.1 (3bc2e813f5, 2020-09-07)"
   sodipodi:docname="favicon.svg">
  <defs
     id="defs2">
    <style
       type="text/css"
       id="style923">
   <![CDATA[
    .fil2 {fill:none}
    .fil3 {fill:#008DD2}
    .fil0 {fill:#5B5B5B}
    .fil4 {fill:#DCCF73}
    .fil1 {fill:#E31E24}
    .fil7 {fill:#0378B4}
    .fil6 {fill:#CC232A}
    .fil5 {fill:#CDC372}
   ]]>
  </style>
  </defs>
  <sodipodi:namedview
     id="base"
     pagecolor="#333333"
     bordercolor="#666666"
     borderopacity="1.0"
     inkscape:pageopacity="0"
     inkscape:pageshadow="2"
     inkscape:zoom="1.187"
     inkscape:cx="500"
     inkscape:cy="500"
     inkscape:document-units="px"
     inkscape:current-layer="layer1"
     inkscape:document-rotation="0"
     showgrid="false"
     units="px"
     inkscape:pagecheckerboard="true"
     inkscape:showpageshadow="false"
     borderlayer="true"
     inkscape:window-width="2560"
     inkscape:window-height="1377"
     inkscape:window-x="1912"
     inkscape:window-y="-8"
     inkscape:window-maximized="1" />
  <metadata
     id="metadata5">
    <rdf:RDF>
      <cc:Work
         rdf:about="">
        <dc:format>image/svg+xml</dc:format>
        <dc:type
           rdf:resource="http://purl.org/dc/dcmitype/StillImage" />
        <dc:title></dc:title>
      </cc:Work>
    </rdf:RDF>
  </metadata>
  <g
     inkscape:label="Layer 1"
     inkscape:groupmode="layer"
     id="layer1">
    <rect
       style="fill:#ffffff;stroke-width:1.3897"
       id="rect833"
       width="264.58334"
       height="264.58334"
       x="0"
       y="-1.4210855e-14" />
    <g
       style="clip-rule:evenodd;fill-rule:evenodd;image-rendering:optimizeQuality;shape-rendering:geometricPrecision;text-rendering:geometricPrecision"
       id="g1051"
       transform="matrix(0.01875857,0,0,0.01875857,22.277587,16.810479)">
      <rect
         class="fil0"
         transform="matrix(1.175,-0.064508,0.064508,1.175,687.59,3366.5)"
         width="7775"
         height="170"
         id="rect927"
         x="0"
         y="0" />
      <rect
         class="fil0"
         transform="matrix(1.1755,-0.054394,0.054394,1.1755,572.09,8816.7)"
         width="7775"
         height="170"
         id="rect929"
         x="0"
         y="0" />
      <rect
         class="fil0"
         transform="matrix(0,1.1768,-1.1768,0,6962.1,1471.5)"
         width="7775"
         height="170"
         id="rect931"
         x="0"
         y="0" />
      <rect
         class="fil0"
         transform="matrix(0.045125,1.1759,-1.1759,0.045125,3698.7,1413.9)"
         width="7775"
         height="170"
         id="rect933"
         x="0"
         y="0" />
      <rect
         class="fil0"
         transform="matrix(1.3821,0.023931,-0.028113,1.1766,4.7861,5595.8)"
         width="7775"
         height="170"
         id="rect935"
         x="0"
         y="0" />
      <path
         class="fil1"
         d="m 2517,1563 c -5,-5 -12,-10 -18,-15 -2,0 -3,-1 -5,-2 l -7,-2 10,2 c -245,-184 -824,-404 -1073,-162 -279,272 -261,699 -52,1009 50,75 312,397 378,450 694,558 1068,-759 924,-1047 -23,-46 -111,-209 -169,-244 4,3 8,7 12,11 z m -17,-16 c 2,1 3,1 4,1 57,15 219,267 235,369 53,317 -119,895 -380,1111 -346,286 -941,-32 -1127,-354 -239,-416 -274,-1030 128,-1357 303,-246 882,3 1140,230 z"
         id="path937" />
      <path
         class="fil2"
         d="m 2517,1563 c -128,-152 -841,-479 -1125,-212 -756,711 336,2061 928,1624 249,-184 358,-563 398,-865 43,-317 -67,-349 -201,-555 -3,-4 -24,-9 -30,-11"
         id="path939" />
      <path
         class="fil1"
         d="m 4522,4143 c -3,7 -6,14 -9,22 v 12 l -1,-9 c -115,284 -178,900 121,1078 335,199 742,71 988,-211 60,-68 303,-404 337,-482 360,-815 -1010,-835 -1250,-622 -39,35 -174,162 -193,227 2,-5 5,-10 7,-15 z m -10,21 v -4 c 0,-59 201,-280 295,-323 293,-132 895,-116 1172,80 366,261 213,918 -51,1180 -339,339 -923,531 -1343,228 -316,-229 -225,-853 -73,-1161 z"
         id="path941" />
      <path
         class="fil2"
         d="m 4522,4143 c -113,164 -244,937 87,1142 883,547 1904,-858 1329,-1316 -242,-193 -637,-200 -938,-162 -318,41 -320,156 -485,338 -3,4 -2,26 -2,32"
         id="path943" />
      <path
         class="fil1"
         d="m 5464,941 c -26,-2 -52,-2 -78,-3 v 3 -3 c -444,-4 -747,147 -902,605 -138,409 -87,1355 517,1267 236,-35 -37,-25 191,-15 514,25 834,-350 934,-825 101,-479 -128,-886 -575,-1076 -91,-38 -155,-63 -165,41 26,1 52,3 78,6 z m -78,-6 c 2,-35 9,-77 52,-78 154,-5 433,186 538,301 474,519 218,1483 -393,1764 -74,35 -400,137 -468,141 -10,0 -255,-40 -255,-40 -613,-157 -634,-1025 -439,-1504 189,-462 504,-611 965,-584 z"
         id="path945" />
      <path
         class="fil2"
         d="m 5464,941 c -453,-42 -757,69 -971,498 -230,458 -197,1505 510,1489 566,-12 907,-174 1111,-744 199,-555 -21,-1086 -561,-1295 -83,-32 -167,-64 -167,52"
         id="path947" />
      <path
         class="fil3"
         d="m 1147,3702 86,-86 c 8,-8 21,-13 38,-14 l -48,48 c 16,244 1240,1329 1389,1541 24,33 27,44 67,40 l -86,87 c -40,3 -43,-8 -67,-41 C 2368,5052 1002,3847 1147,3702 Z"
         id="path949" />
      <path
         class="fil2"
         d="m 1228,3645 c -337,23 1174,1352 1341,1589 24,33 27,44 67,41"
         id="path951" />
      <path
         class="fil3"
         d="m 886,4994 c 128,-123 900,-286 1304,-494 83,-42 675,-194 756,-187 l -87,86 c -80,-7 -673,145 -755,188 -404,207 -1177,370 -1304,494 z"
         id="path953" />
      <path
         class="fil2"
         d="m 843,5038 c 128,-124 900,-287 1304,-495 83,-42 675,-194 756,-187"
         id="path955" />
      <path
         class="fil3"
         d="m 8822,716 c -241,-9 -793,1747 -791,1750 l -113,-30 c -2,-3 550,-1759 791,-1751 z"
         id="path957" />
      <path
         class="fil2"
         d="m 8766,700 c -242,-8 -793,1748 -792,1751"
         id="path959" />
      <path
         class="fil3"
         d="m 7726,1086 c 317,235 638,713 1068,1046 262,204 378,461 558,636 l -113,-30 C 9059,2562 8943,2306 8681,2102 8252,1769 7930,1290 7613,1056 Z"
         id="path961" />
      <path
         class="fil2"
         d="m 7669,1071 c 318,235 639,713 1068,1046 263,204 378,461 558,636"
         id="path963" />
      <path
         class="fil3"
         d="m 4452,5976 c -79,246 1275,1897 1613,2206 l -108,108 C 5619,7981 4265,6329 4344,6084 Z"
         id="path965" />
      <path
         class="fil2"
         d="m 4398,6030 c -79,246 1275,1897 1613,2206"
         id="path967" />
      <path
         class="fil3"
         d="m 4530,7919 c -3,-8 3,-18 15,-31 l 108,-108 c 145,-144 1206,-584 1458,-743 233,-146 500,-233 751,-320 l -108,108 c -251,87 -518,174 -751,320 -229,144 -1125,520 -1396,697 z"
         id="path969" />
      <path
         class="fil2"
         d="m 4583,7865 c -29,-97 1200,-602 1474,-774 233,-146 500,-233 751,-320"
         id="path971" />
      <polygon
         class="fil4"
         points="9658,2884 20204,58 20841,2435 10295,5261 6751,4937 "
         id="polygon973" />
      <path
         class="fil1"
         d="M 7986,5050 6754,4939 c -6,-1 -1,-4 -2,-6 l 1012,-711 c 220,249 287,526 222,828 z"
         id="path975" />
      <path
         class="fil1"
         d="m 10295,5261 418,-412 c -192,-61 -709,-29 -578,-182 l 356,-414 c -225,-48 -850,5 -676,-146 l 517,-448 c -172,-60 -634,-43 -515,-180 L 10172,3065 9658,2884 20336,0 c 45,168 -42,371 4,539 28,106 312,146 347,252 68,202 -71,384 -41,598 17,120 281,190 326,316 80,221 -44,499 10,700 z"
         id="path977" />
      <ellipse
         class="fil5"
         transform="matrix(-0.085578,-1.4241,1.4241,-0.085579,9037.1,4737)"
         rx="55"
         ry="604"
         id="ellipse979"
         cx="0"
         cy="0" />
      <ellipse
         class="fil5"
         transform="matrix(0.66738,1.335,1.335,-0.66738,8821.9,4017.6)"
         rx="55"
         ry="604"
         id="ellipse981"
         cx="0"
         cy="0" />
      <ellipse
         class="fil6"
         transform="matrix(-0.11076,-0.41337,1.378,-0.36925,15114,3491)"
         rx="121"
         ry="3086"
         id="ellipse983"
         cx="0"
         cy="0" />
      <ellipse
         class="fil6"
         transform="matrix(-0.11076,-0.41337,1.378,-0.36925,14628,2078.2)"
         rx="121"
         ry="3086"
         id="ellipse985"
         cx="0"
         cy="0" />
      <ellipse
         class="fil6"
         transform="matrix(-0.12864,-0.48009,1.6005,-0.42885,14880,2782.2)"
         rx="121"
         ry="3086"
         id="ellipse987"
         cx="0"
         cy="0" />
      <polygon
         class="fil4"
         points="8632,10331 14098,19797 11964,21029 6498,11563 5894,8052 "
         id="polygon989" />
      <path
         class="fil3"
         d="M 6105,9276 5892,8056 c 0,-7 4,-3 6,-4 l 950,794 c -184,278 -435,414 -743,430 z"
         id="path991" />
      <path
         class="fil3"
         d="m 6498,11563 508,298 c 9,-202 -156,-694 26,-606 l 492,236 c -11,-230 -225,-821 -34,-691 l 567,383 c 14,-181 -122,-623 42,-544 l 492,236 41,-544 5556,9579 c -151,87 -369,55 -520,143 -96,55 -60,340 -154,401 -178,118 -390,30 -589,115 -112,48 -111,322 -220,398 -194,134 -495,86 -675,190 z"
         id="path993" />
      <ellipse
         class="fil5"
         transform="matrix(1.3549,-0.45175,0.45175,1.3549,6679.6,10211)"
         rx="55"
         ry="604"
         id="ellipse995"
         cx="0"
         cy="0" />
      <ellipse
         class="fil5"
         transform="matrix(-1.118,0.99126,0.99126,1.118,7319.6,9816.3)"
         rx="55"
         ry="604"
         id="ellipse997"
         cx="0"
         cy="0" />
      <ellipse
         class="fil7"
         transform="matrix(0.37103,-0.21421,0.71413,1.2369,9459.1,15764)"
         rx="121"
         ry="3086"
         id="ellipse999"
         cx="0"
         cy="0" />
      <ellipse
         class="fil7"
         transform="matrix(0.37103,-0.21421,0.71413,1.2369,10699,14928)"
         rx="121"
         ry="3086"
         id="ellipse1001"
         cx="0"
         cy="0" />
      <ellipse
         class="fil7"
         transform="matrix(0.43092,-0.24879,0.8294,1.4366,10084,15354)"
         rx="121"
         ry="3086"
         id="ellipse1003"
         cx="0"
         cy="0" />
    </g>
  </g>
</svg>
